<svg width="25" height="25" viewBox="0 0 25 25" fill="none" xmlns="http://www.w3.org/2000/svg">
<path d="M7.31645 0.333374H17.3498C21.172 0.333374 24.2776 3.43893 24.2776 7.26115V17.2945C24.2776 19.1318 23.5477 20.894 22.2485 22.1932C20.9493 23.4924 19.1871 24.2223 17.3498 24.2223H7.31645C3.49423 24.2223 0.388672 21.1167 0.388672 17.2945V7.26115C0.388672 5.42379 1.11856 3.66168 2.41777 2.36247C3.71698 1.06326 5.47909 0.333374 7.31645 0.333374ZM7.07756 2.72226C5.93713 2.72226 4.84341 3.1753 4.037 3.9817C3.2306 4.78811 2.77756 5.88183 2.77756 7.02226V17.5334C2.77756 19.9103 4.70062 21.8334 7.07756 21.8334H17.5887C18.7291 21.8334 19.8228 21.3803 20.6292 20.5739C21.4356 19.7675 21.8887 18.6738 21.8887 17.5334V7.02226C21.8887 4.64532 19.9656 2.72226 17.5887 2.72226H7.07756ZM18.6039 4.51393C18.9999 4.51393 19.3797 4.67123 19.6597 4.95124C19.9397 5.23124 20.097 5.611 20.097 6.00699C20.097 6.40297 19.9397 6.78273 19.6597 7.06273C19.3797 7.34274 18.9999 7.50004 18.6039 7.50004C18.208 7.50004 17.8282 7.34274 17.5482 7.06273C17.2682 6.78273 17.1109 6.40297 17.1109 6.00699C17.1109 5.611 17.2682 5.23124 17.5482 4.95124C17.8282 4.67123 18.208 4.51393 18.6039 4.51393ZM12.3331 6.3056C13.917 6.3056 15.4361 6.93481 16.5561 8.05482C17.6761 9.17483 18.3053 10.6939 18.3053 12.2778C18.3053 13.8617 17.6761 15.3808 16.5561 16.5008C15.4361 17.6208 13.917 18.25 12.3331 18.25C10.7492 18.25 9.23013 17.6208 8.11012 16.5008C6.99011 15.3808 6.36089 13.8617 6.36089 12.2778C6.36089 10.6939 6.99011 9.17483 8.11012 8.05482C9.23013 6.93481 10.7492 6.3056 12.3331 6.3056ZM12.3331 8.69448C11.3828 8.69448 10.4713 9.07201 9.79932 9.74402C9.12731 10.416 8.74978 11.3275 8.74978 12.2778C8.74978 13.2282 9.12731 14.1396 9.79932 14.8116C10.4713 15.4836 11.3828 15.8612 12.3331 15.8612C13.2835 15.8612 14.1949 15.4836 14.8669 14.8116C15.5389 14.1396 15.9164 13.2282 15.9164 12.2778C15.9164 11.3275 15.5389 10.416 14.8669 9.74402C14.1949 9.07201 13.2835 8.69448 12.3331 8.69448Z" fill="black"/>
</svg>
