<svg width="26" height="16" viewBox="0 0 26 16" fill="none" xmlns="http://www.w3.org/2000/svg">
<path d="M7.813 8.9125e-06C6.78703 -0.00012242 5.77108 0.201844 4.82317 0.594375C3.87526 0.986906 3.01395 1.56231 2.28844 2.28774C1.56292 3.01316 0.987401 3.87439 0.594749 4.82226C0.202097 5.77012 -8.40583e-09 6.78604 0 7.81201C0.000274614 9.29667 0.423614 10.7505 1.22043 12.0032C2.01724 13.256 3.15453 14.2557 4.49908 14.8853C5.84363 15.5149 7.33975 15.7484 8.8122 15.5583C10.2846 15.3682 11.6724 14.7624 12.813 13.812C13.9535 14.763 15.3415 15.3692 16.8142 15.5595C18.2869 15.7499 19.7834 15.5166 21.1283 14.8869C22.4732 14.2572 23.6107 13.2573 24.4076 12.0042C25.2045 10.7512 25.6277 9.29699 25.6277 7.81201C25.6277 6.32703 25.2045 4.87281 24.4076 3.61977C23.6107 2.36673 22.4732 1.36678 21.1283 0.737099C19.7834 0.107418 18.2869 -0.125905 16.8142 0.064473C15.3415 0.254851 13.9535 0.861042 12.813 1.81201C11.4113 0.638828 9.64089 -0.00275805 7.813 8.9125e-06ZM17.813 2.00001C19.3541 2.00133 20.8318 2.61406 21.9216 3.70371C23.0114 4.79335 23.6244 6.27088 23.626 7.81201C23.6247 9.35331 23.0118 10.8311 21.9219 11.921C20.8321 13.0108 19.3543 13.6237 17.813 13.625C16.435 13.625 15.185 13.115 14.188 12.312C15.1216 10.997 15.624 9.4247 15.626 7.81201C15.624 6.19932 15.1216 4.627 14.188 3.31201C15.185 2.50801 16.435 1.99901 17.813 1.99901V2.00001Z" fill="black"/>
</svg>
