<svg width="26" height="16" viewBox="0 0 26 16" fill="none" xmlns="http://www.w3.org/2000/svg">
<path d="M8.45091 1.04579e-05C10.0418 -0.00242969 11.6008 0.422199 12.947 1.22462L12.1734 1.82893C11.2116 2.57895 10.4373 3.52131 9.90608 4.58831C9.37486 5.65531 9.09992 6.82045 9.10101 8C9.10001 9.17955 9.37499 10.3447 9.90621 11.4116C10.4374 12.4786 11.2117 13.421 12.1734 14.1711L12.947 14.7742C11.838 15.4336 10.5824 15.8401 9.27903 15.9615C7.97571 16.083 6.66041 15.916 5.43693 15.4738C4.21344 15.0317 3.11525 14.3264 2.22902 13.4137C1.34279 12.501 0.692766 11.4058 0.330245 10.2145C-0.0322755 9.02326 -0.0973723 7.76856 0.140092 6.54942C0.377556 5.33028 0.911082 4.18006 1.69857 3.18953C2.48606 2.19899 3.50595 1.39525 4.67778 0.841734C5.84961 0.288214 7.14129 5.95482e-05 8.45091 1.04579e-05ZM17.5523 1.04579e-05C18.8453 0.000518232 20.1211 0.281901 21.2812 0.822497C22.4414 1.36309 23.455 2.14848 24.2441 3.11821C25.0331 4.08793 25.5766 5.21612 25.8327 6.41593C26.0887 7.61574 26.0505 8.85517 25.7209 10.0388C25.3914 11.2224 24.7793 12.3187 23.9318 13.2432C23.0843 14.1677 22.024 14.8958 20.8326 15.3714C19.6411 15.847 18.3502 16.0575 17.0593 15.9866C15.7683 15.9157 14.5118 15.5653 13.3864 14.9625L13.0562 14.7754L13.8298 14.1711C14.7915 13.421 15.5658 12.4786 16.097 11.4116C16.6282 10.3447 16.9032 9.17955 16.9022 8C16.9022 5.62831 15.81 3.49662 14.0807 2.03324L13.8298 1.82893L13.0562 1.22462C14.4024 0.422199 15.9614 -0.00242969 17.5523 1.04579e-05ZM13.0016 4.51816C13.8449 5.5028 14.3041 6.73242 14.3018 8C14.3042 9.2676 13.845 10.4973 13.0016 11.4818C12.1582 10.4973 11.699 9.2676 11.7014 8C11.6991 6.73242 12.1583 5.5028 13.0016 4.51816Z" fill="black"/>
</svg>
