<svg width="57" height="49" viewBox="0 0 57 49" fill="none" xmlns="http://www.w3.org/2000/svg">
<path d="M40.98 40.98C37.0561 44.9082 31.8916 47.3544 26.3664 47.9019C20.8411 48.4493 15.297 47.0641 10.6786 43.9823C6.06011 40.9004 2.65307 36.3126 1.03792 31.0004C-0.57724 25.6882 -0.300587 19.9804 1.82074 14.8493C3.94207 9.71824 7.77682 5.48141 12.6717 2.86065C17.5665 0.239892 23.2186 -0.602645 28.665 0.476585C34.1114 1.55581 39.0151 4.49004 42.5407 8.77935C46.0663 13.0687 47.9956 18.4477 48 24H42C42.0037 19.8354 40.5631 15.7984 37.9239 12.5768C35.2846 9.35533 31.6099 7.14866 27.526 6.33285C23.4421 5.51705 19.2017 6.14259 15.5273 8.10289C11.8529 10.0632 8.97197 13.2369 7.37536 17.0833C5.77874 20.9297 5.56527 25.2107 6.77133 29.1968C7.97738 33.183 10.5283 36.6276 13.9895 38.9437C17.4506 41.2598 21.6078 42.3041 25.7526 41.8986C29.8974 41.4931 33.7733 39.6629 36.72 36.72L40.98 40.98ZM33 24H57L45 36L33 24Z" fill="white"/>
</svg>
