<svg width="26" height="22" viewBox="0 0 26 22" fill="none" xmlns="http://www.w3.org/2000/svg">
<path d="M25.8271 3.11106C24.9074 3.52911 23.916 3.80383 22.8888 3.93522C23.9399 3.30217 24.7521 2.29883 25.1344 1.09245C24.143 1.68967 23.0441 2.10772 21.8855 2.34661C20.9419 1.31939 19.616 0.722168 18.111 0.722168C15.3041 0.722168 13.0107 3.0155 13.0107 5.84633C13.0107 6.25245 13.0585 6.64661 13.1421 7.01689C8.88991 6.80189 5.10352 4.75939 2.58324 1.66578C2.1413 2.41828 1.89047 3.30217 1.89047 4.23383C1.89047 6.01356 2.7863 7.59022 4.17186 8.48606C3.3238 8.48606 2.53547 8.24717 1.84269 7.88883V7.92467C1.84269 10.4091 3.61047 12.4874 5.95158 12.9533C5.19995 13.159 4.41086 13.1876 3.6463 13.0369C3.97072 14.0551 4.60608 14.9461 5.46307 15.5846C6.32006 16.223 7.35558 16.5769 8.42408 16.5963C6.61286 18.0302 4.36774 18.8052 2.05769 18.7941C1.65158 18.7941 1.24547 18.7702 0.839355 18.7224C3.1088 20.1797 5.80824 21.0277 8.6988 21.0277C18.111 21.0277 23.283 13.2161 23.283 6.44356C23.283 6.21661 23.283 6.00161 23.271 5.77467C24.2744 5.058 25.1344 4.15022 25.8271 3.11106Z" fill="black"/>
</svg>
