<svg width="36" height="12" viewBox="0 0 36 12" fill="none" xmlns="http://www.w3.org/2000/svg">
<path d="M33.333 11.8268L32.9955 10.0871H29.2245L28.6245 11.8144L25.602 11.8206C27.5445 7.0067 28.9875 3.44227 29.928 1.12423C30.174 0.518042 30.6105 0.208764 31.254 0.213403C31.746 0.218042 32.5485 0.218041 33.663 0.214948L36 11.8222L33.333 11.8268ZM30.072 7.70412H32.5035L31.596 3.3433L30.072 7.70412ZM10.593 0.211856L13.632 0.214948L8.934 11.8284L5.8575 11.8253C5.08388 8.75771 4.31987 5.68759 3.5655 2.61495C3.4155 2.00258 3.1185 1.57423 2.547 1.37165C1.70181 1.08061 0.852726 0.801712 0 0.535051L0 0.214948H4.8555C5.6955 0.214948 6.186 0.634021 6.3435 1.49382C6.5025 2.35516 6.9015 4.54948 7.5435 8.07217L10.593 0.211856ZM17.808 0.214948L15.4065 11.8268L12.513 11.8222L14.91 0.211856L17.808 0.214948ZM23.673 0C24.5385 0 25.629 0.27835 26.256 0.535051L25.749 2.94124C25.182 2.70619 24.249 2.38918 23.4645 2.4C22.3245 2.4201 21.6195 2.9134 21.6195 3.3866C21.6195 4.1567 22.8435 4.54485 24.1035 5.38608C25.5405 6.34484 25.731 7.20619 25.713 8.1433C25.6935 10.084 24.1035 12 20.7495 12C19.2195 11.9768 18.6675 11.8454 17.4195 11.3876L17.9475 8.87629C19.218 9.42371 19.7565 9.59845 20.8425 9.59845C21.837 9.59845 22.6905 9.18402 22.698 8.46186C22.704 7.94845 22.398 7.6933 21.282 7.05928C20.166 6.42371 18.6 5.54536 18.621 3.77783C18.6465 1.51701 20.724 0 23.673 0Z" fill="black"/>
</svg>
