<svg width="24" height="24" viewBox="0 0 24 24" fill="none" xmlns="http://www.w3.org/2000/svg">
<path d="M5.71995 5.72C5.86058 5.57955 6.0512 5.50066 6.24995 5.50066C6.4487 5.50066 6.63933 5.57955 6.77995 5.72L11.9999 10.94L17.2199 5.72C17.3116 5.62127 17.4282 5.5491 17.5575 5.51109C17.6867 5.47307 17.8238 5.47062 17.9544 5.504C18.0849 5.53737 18.204 5.60533 18.2991 5.70072C18.3943 5.7961 18.4619 5.91539 18.495 6.046C18.5284 6.17637 18.526 6.31335 18.4882 6.44251C18.4504 6.57167 18.3784 6.68826 18.28 6.78L13.06 12L18.28 17.22C18.3787 17.3117 18.4508 17.4283 18.4889 17.5575C18.5269 17.6868 18.5293 17.8239 18.4959 17.9544C18.4626 18.0849 18.3946 18.204 18.2992 18.2992C18.2038 18.3943 18.0846 18.462 17.9539 18.495C17.8236 18.5284 17.6866 18.5261 17.5574 18.4882C17.4283 18.4504 17.3117 18.3785 17.2199 18.28L11.9999 13.06L6.77995 18.28C6.63769 18.4124 6.44964 18.4845 6.25532 18.4812C6.061 18.4778 5.87555 18.3992 5.73795 18.262C5.60071 18.1244 5.52215 17.9389 5.5188 17.7446C5.51544 17.5503 5.58754 17.3623 5.71995 17.22L10.9399 12L5.71995 6.78C5.5795 6.63937 5.50061 6.44875 5.50061 6.25C5.50061 6.05125 5.5795 5.86062 5.71995 5.72Z" fill="#8B8B8B"/>
</svg>
